<svg width="61" height="57" viewBox="0 0 61 57" fill="none" xmlns="http://www.w3.org/2000/svg">
<mask id="mask0_6_2" style="mask-type:luminance" maskUnits="userSpaceOnUse" x="0" y="0" width="60" height="57">
<path d="M0 0H59.9018V56.9099H0V0Z" fill="white"/>
</mask>
<g mask="url(#mask0_6_2)">
<path d="M29.9441 0.0619101C29.9627 0.0246249 29.9934 0.00563049 30.0362 0.00563049C30.0783 0.00563049 30.109 0.0246249 30.1276 0.0619101L46.7061 31.4723C46.7482 31.5532 46.8068 31.6207 46.881 31.6742C46.9559 31.7283 47.0388 31.7621 47.1301 31.7769C51.5487 32.4719 55.7245 33.7277 59.6577 35.5448C59.869 35.6426 59.8576 35.6911 59.6242 35.689C56.1378 35.6602 52.5181 35.8283 48.7648 36.1948C46.9824 36.3686 45.2249 36.6141 43.4932 36.9307C36.7826 38.1555 30.4688 40.0655 24.5526 42.66C16.0603 46.3843 7.94484 51.3495 0.167746 56.7791C0.0613863 56.8551 0.0264091 56.8312 0.0628141 56.7066C0.141334 56.4316 0.249122 56.1699 0.384748 55.9222C1.36982 54.1431 2.34705 52.3344 3.31784 50.4948C12.1692 33.7101 21.0442 16.8987 29.9441 0.0619101ZM29.9156 17.0457C27.051 22.4739 24.2243 27.8324 21.4361 33.1213C21.3333 33.3175 21.2512 33.5258 21.1905 33.746C21.1784 33.7889 21.1891 33.8248 21.2212 33.8557C21.2541 33.886 21.2919 33.8937 21.334 33.8803C26.4421 32.2025 31.7051 31.283 37.1223 31.1212C37.1587 31.1212 37.1901 31.1205 37.2166 31.1191C37.2358 31.1177 37.2558 31.1142 37.2744 31.1079C37.2936 31.1022 37.3115 31.0938 37.3279 31.0832C37.345 31.0727 37.36 31.0607 37.3736 31.0467C37.3879 31.0326 37.3993 31.0171 37.4093 30.9995C37.4186 30.9826 37.4264 30.9643 37.4314 30.9461C37.4364 30.9271 37.4393 30.9074 37.44 30.8884C37.44 30.8687 37.4378 30.849 37.4336 30.83C37.4286 30.811 37.4221 30.7927 37.4129 30.7758C35.1657 26.5464 32.8116 22.0912 30.3503 17.4101C30.2753 17.2652 30.1754 17.1364 30.0519 17.0225C29.9955 16.9725 29.9506 16.9803 29.9156 17.0457Z" fill="#F28C8C"/>
</g>
<mask id="mask1_6_2" style="mask-type:luminance" maskUnits="userSpaceOnUse" x="37" y="38" width="24" height="19">
<path d="M37.2423 38.7204H60.1667V57H37.2423V38.7204Z" fill="white"/>
</mask>
<g mask="url(#mask1_6_2)">
<path d="M59.9489 56.9133L37.4364 49.8727C37.3522 49.8474 37.3301 49.7954 37.3679 49.718C37.5149 49.4204 37.677 49.1432 37.8554 48.8871C40.6308 44.9159 44.0578 41.8409 48.1359 39.6608C48.8726 39.269 49.5693 38.9615 50.226 38.7399C50.2652 38.7266 50.3052 38.7202 50.3473 38.7209C50.3887 38.7223 50.4287 38.7301 50.4672 38.7456C50.5065 38.7603 50.5408 38.7814 50.5722 38.8089C50.6029 38.8363 50.6279 38.8687 50.6471 38.9046L60.0796 56.7607C60.1602 56.9161 60.116 56.9668 59.9489 56.9133Z" fill="#F28C8C"/>
</g>
</svg>
